<?xml version="1.0" standalone="no"?>
<svg xmlns="http://www.w3.org/2000/svg" viewBox="0 0 160.584 36" width="160.584" height="36">
<g fill="#FF7900" color="#FF7900" transform="translate(0 3.9999999999999982) scale(0.2800001)">
<svg width="100.0" height="100.0" x="0.0" y="0.0" viewBox="0 0 100 100"><g><g>
<path d="M97.938,68.771h-6.316V20.81c0-1.115-0.905-2.021-2.021-2.021H10.399c-1.115,0-2.021,0.906-2.021,2.021v47.961H2.062 C0.924,68.771,0,69.694,0,70.832v2.084c0,0.103,0.008,0.204,0.022,0.306c0.527,3.521,3.348,7.447,7.159,7.922    c0.083,0.01,0.169,0.017,0.252,0.017l84.51,0.071h0.003c4.404,0,7.604-4.197,8.041-8.085c0.009-0.075,0.013-0.152,0.013-0.23    v-2.084C100,69.694,99.076,68.771,97.938,68.771z M12.42,22.831h75.16v45.939H59.985c-0.133,0-0.262,0.016-0.386,0.04H41.16    c-0.128-0.025-0.261-0.04-0.396-0.04H12.42V22.831z M91.948,77.107L7.586,77.036c-1.461-0.261-3.024-2.16-3.434-4.143h35.086    c0.702,1.246,2.017,2.085,3.519,2.085h15.233c1.502,0,2.816-0.839,3.52-2.085h34.35C95.538,74.926,93.854,77.107,91.948,77.107z     M38.84,37.498c-0.814-0.814-2.133-0.814-2.947,0l-8.689,8.689c-0.814,0.814-0.814,2.133,0,2.948l8.689,8.688    c0.407,0.407,0.94,0.611,1.474,0.611s1.066-0.204,1.474-0.611c0.814-0.813,0.814-2.133,0-2.947l-7.216-7.215l7.216-7.216    C39.654,39.631,39.654,38.312,38.84,37.498z M59.361,57.823c0.406,0.407,0.939,0.611,1.474,0.611c0.533,0,1.066-0.204,1.474-0.611    l8.688-8.688c0.814-0.814,0.814-2.133,0-2.948l-8.688-8.689c-0.814-0.814-2.134-0.814-2.947,0c-0.814,0.814-0.814,2.133,0,2.947    l7.215,7.216l-7.215,7.215C58.547,55.69,58.547,57.01,59.361,57.823z M41.793,62.275c0.299,0.148,0.617,0.22,0.931,0.22    c0.765,0,1.5-0.422,1.866-1.152l12.506-25.011c0.515-1.03,0.098-2.281-0.933-2.796c-1.029-0.513-2.281-0.098-2.797,0.932    L40.861,59.479C40.346,60.509,40.763,61.76,41.793,62.275z"></path></g></g></svg></g>
<path fill="#2f55d4" fill-rule="nonzero" d="M6.24 17.16L0 17.16L0 16.06L2.21 15.53L2.21 1.99L0 1.46L0 0.36L6.24 0.36Q10.66 0.36 13.19 2.47Q15.72 4.58 15.72 8.76L15.72 8.76Q15.72 12.53 13.10 14.84Q10.49 17.16 6.24 17.16L6.24 17.16ZM5.16 1.97L5.16 15.55L6.12 15.55Q9.31 15.55 11.00 13.94Q12.70 12.34 12.70 8.76L12.70 8.76Q12.70 5.45 10.96 3.71Q9.22 1.97 6.12 1.97L6.12 1.97L5.16 1.97ZM30.50 17.16L17.54 17.16L17.54 16.06L19.75 15.53L19.75 1.99L17.54 1.46L17.54 0.36L30.05 0.36L30.05 5.28L28.92 5.28L27.89 1.97L22.70 1.78L22.70 7.94L27.89 7.49L27.89 9.62L22.70 9.19L22.70 15.74L28.34 15.55L29.57 11.98L30.70 11.98L30.50 17.16ZM33.84 1.99L31.70 1.46L31.70 0.36L38.98 0.36L38.98 1.46L37.01 1.87L41.09 13.39L44.93 1.99L43.03 1.46L43.03 0.36L48.82 0.36L48.82 1.46L46.61 1.99L41.33 17.33L39.43 17.33L33.84 1.99ZM63.31 17.16L55.32 17.16L55.32 16.06L57.53 15.53L57.53 1.99L55.32 1.46L55.32 0.36L62.21 0.36Q68.06 0.36 68.06 4.44L68.06 4.44Q68.06 5.76 67.28 6.74Q66.50 7.73 65.16 8.16L65.16 8.16L65.16 8.21Q67.13 8.57 68.20 9.67Q69.26 10.78 69.26 12.43L69.26 12.43Q69.26 14.59 67.66 15.88Q66.05 17.16 63.31 17.16L63.31 17.16ZM60.48 9.19L60.48 15.70L62.57 15.70Q64.32 15.70 65.28 14.86Q66.24 14.02 66.24 12.43L66.24 12.43Q66.24 10.97 65.24 10.08Q64.25 9.19 62.45 9.19L62.45 9.19L60.48 9.19ZM60.48 1.82L60.48 7.68L61.85 7.68Q63.24 7.68 64.14 6.88Q65.04 6.07 65.04 4.66L65.04 4.66Q65.04 3.22 64.14 2.52Q63.24 1.82 61.70 1.82L61.70 1.82L60.48 1.82ZM79.82 0L79.82 0Q81.77 0 83.26 0.65Q84.74 1.30 85.78 2.45Q86.81 3.60 87.34 5.21Q87.86 6.82 87.86 8.74L87.86 8.74Q87.86 10.68 87.35 12.29Q86.83 13.90 85.81 15.06Q84.79 16.22 83.29 16.87Q81.79 17.52 79.82 17.52L79.82 17.52Q77.74 17.52 76.21 16.82Q74.69 16.13 73.70 14.94Q72.72 13.75 72.25 12.14Q71.78 10.54 71.78 8.69L71.78 8.69Q71.78 6.89 72.26 5.32Q72.74 3.74 73.73 2.56Q74.71 1.37 76.24 0.68Q77.76 0 79.82 0ZM79.82 1.42L79.82 1.42Q77.38 1.42 76.12 3.47Q74.86 5.52 74.86 8.76L74.86 8.76Q74.86 12.19 76.19 14.15Q77.52 16.10 79.82 16.10L79.82 16.10Q82.13 16.10 83.46 14.15Q84.79 12.19 84.79 8.76L84.79 8.76Q84.79 5.52 83.53 3.47Q82.27 1.42 79.82 1.42ZM98.33 0L98.33 0Q100.27 0 101.76 0.65Q103.25 1.30 104.28 2.45Q105.31 3.60 105.84 5.21Q106.37 6.82 106.37 8.74L106.37 8.74Q106.37 10.68 105.85 12.29Q105.34 13.90 104.32 15.06Q103.30 16.22 101.80 16.87Q100.30 17.52 98.33 17.52L98.33 17.52Q96.24 17.52 94.72 16.82Q93.19 16.13 92.21 14.94Q91.22 13.75 90.76 12.14Q90.29 10.54 90.29 8.69L90.29 8.69Q90.29 6.89 90.77 5.32Q91.25 3.74 92.23 2.56Q93.22 1.37 94.74 0.68Q96.26 0 98.33 0ZM98.33 1.42L98.33 1.42Q95.88 1.42 94.62 3.47Q93.36 5.52 93.36 8.76L93.36 8.76Q93.36 12.19 94.69 14.15Q96.02 16.10 98.33 16.10L98.33 16.10Q100.63 16.10 101.96 14.15Q103.30 12.19 103.30 8.76L103.30 8.76Q103.30 5.52 102.04 3.47Q100.78 1.42 98.33 1.42ZM115.68 17.16L108.31 17.16L108.31 16.06L110.52 15.65L110.52 1.87L108.31 1.46L108.31 0.36L115.68 0.36L115.68 1.46L113.47 1.87L113.47 15.65L115.68 16.06L115.68 17.16ZM119.95 17.16L114.00 8.54L119.93 1.87L118.20 1.46L118.20 0.36L123.96 0.36L123.96 1.46L121.82 1.99L116.66 7.73L122.30 15.29L124.58 16.06L124.58 17.16L119.95 17.16Z" transform="translate(36, 9.42)"></path></svg>